<svg id="visual" viewBox="0 0 3440 1440" width="3440" height="1440" xmlns="http://www.w3.org/2000/svg" xmlns:xlink="http://www.w3.org/1999/xlink" version="1.1"><path d="M0 512L313 517L625 412L938 403L1251 643L1564 552L1876 520L2189 419L2502 493L2815 580L3127 487L3440 566L3440 0L3127 0L2815 0L2502 0L2189 0L1876 0L1564 0L1251 0L938 0L625 0L313 0L0 0Z" fill="#ffd21e"></path><path d="M0 536L313 341L625 364L938 386L1251 513L1564 531L1876 575L2189 375L2502 342L2815 525L3127 537L3440 486L3440 0L3127 0L2815 0L2502 0L2189 0L1876 0L1564 0L1251 0L938 0L625 0L313 0L0 0Z" fill="#d7b228"></path><path d="M0 391L313 427L625 388L938 475L1251 334L1564 397L1876 318L2189 488L2502 325L2815 323L3127 321L3440 429L3440 0L3127 0L2815 0L2502 0L2189 0L1876 0L1564 0L1251 0L938 0L625 0L313 0L0 0Z" fill="#b0922c"></path><path d="M0 270L313 264L625 396L938 299L1251 348L1564 381L1876 366L2189 314L2502 251L2815 372L3127 309L3440 394L3440 0L3127 0L2815 0L2502 0L2189 0L1876 0L1564 0L1251 0L938 0L625 0L313 0L0 0Z" fill="#8b742d"></path><path d="M0 191L313 204L625 317L938 263L1251 204L1564 287L1876 297L2189 314L2502 262L2815 300L3127 192L3440 225L3440 0L3127 0L2815 0L2502 0L2189 0L1876 0L1564 0L1251 0L938 0L625 0L313 0L0 0Z" fill="#67572b"></path><path d="M0 198L313 224L625 219L938 180L1251 169L1564 210L1876 192L2189 187L2502 234L2815 180L3127 212L3440 189L3440 0L3127 0L2815 0L2502 0L2189 0L1876 0L1564 0L1251 0L938 0L625 0L313 0L0 0Z" fill="#453c28"></path><path d="M0 140L313 143L625 140L938 97L1251 80L1564 149L1876 83L2189 128L2502 80L2815 112L3127 97L3440 138L3440 0L3127 0L2815 0L2502 0L2189 0L1876 0L1564 0L1251 0L938 0L625 0L313 0L0 0Z" fill="#232323"></path></svg>