<svg id="visual" viewBox="0 0 3440 1440" width="3440" height="1440" xmlns="http://www.w3.org/2000/svg" xmlns:xlink="http://www.w3.org/1999/xlink" version="1.1"><g transform="translate(1130.4109297504242 430.32013304879774)"><path d="M703.7 -1105C876.8 -842.8 957.7 -590.1 1224.5 -277.7C1491.3 34.6 1944 406.7 1904.3 646.6C1864.6 886.4 1332.6 994.2 933.2 1278.2C533.7 1562.3 266.9 2022.6 -47 2087.3C-360.9 2152.1 -721.8 1821.1 -727.5 1409.2C-733.2 997.2 -383.7 504.2 -216.1 251.6C-48.5 -0.9 -62.8 -13 -57.1 -14.8C-51.4 -16.7 -25.7 -8.3 -12.8 -322.7C0 -637 0 -1274 132.6 -1456.6C265.3 -1639.1 530.6 -1367.3 703.7 -1105" fill="rgb(255, 201, 0)
"></path></g></svg>