<svg id="visual" viewBox="0 0 3440 1440" width="3440" height="1440" xmlns="http://www.w3.org/2000/svg" xmlns:xlink="http://www.w3.org/1999/xlink" version="1.1"><g transform="translate(1228.7704060147607 669.1906284655391)"><path d="M1367.4 -1946.5C1783.1 -2128.3 2138.6 -1784.2 2073.2 -1372.1C2007.8 -960 1521.4 -480 1470.4 -29.4C1419.5 421.2 1804 842.3 1719.5 994.9C1635.1 1147.5 1081.8 1031.4 717.1 1262.7C352.3 1493.9 176.2 2072.5 -14.2 2097.1C-204.7 2121.8 -409.3 1592.7 -548.6 1231.2C-687.9 869.8 -761.8 676.2 -886.5 498.9C-1011.1 321.7 -1186.6 160.8 -1047.3 80.4C-908 0 -454 0 -410.2 -317.3C-366.3 -634.5 -732.7 -1269 -732.7 -1327.2C-732.7 -1385.3 -366.3 -867.2 54.7 -962C475.8 -1056.8 951.7 -1764.7 1367.4 -1946.5" fill="#6a00ff"></path></g></svg>