<svg id="visual" viewBox="0 0 3440 1440" width="3440" height="1440" xmlns="http://www.w3.org/2000/svg" xmlns:xlink="http://www.w3.org/1999/xlink" version="1.1"><g transform="translate(1636.9212938156552 866.0969229222097)"><path d="M604.7 -940.5C1020.4 -807.4 1757.3 -1123.7 1923.4 -1041.8C2089.4 -960 1684.7 -480 1269 -240C853.3 0 426.7 0 322.3 188.7C217.8 377.3 435.7 754.6 435.7 1060.8C435.7 1366.9 217.8 1602 106.1 1418.2C-5.7 1234.5 -11.3 632 -322.4 505.4C-633.4 378.8 -1249.9 728.1 -1553.7 723.2C-1857.5 718.3 -1848.8 359.2 -1671.7 102.3C-1494.6 -154.7 -1149.1 -309.3 -948.5 -493.1C-747.9 -676.8 -692.2 -889.6 -558.3 -1185.5C-424.3 -1481.3 -212.2 -1860.2 -58.8 -1758.2C94.5 -1656.3 189 -1073.7 604.7 -940.5" fill="#0066FF"></path></g></svg>