<svg id="visual" viewBox="0 0 3440 1440" width="3440" height="1440" xmlns="http://www.w3.org/2000/svg" xmlns:xlink="http://www.w3.org/1999/xlink" version="1.1"><g transform="translate(3400.1369424620416 1908.7051139666817)"><path d="M806.6 -860.8C1206 -820 1801.3 -799.3 1757.6 -640.4C1713.8 -481.4 1030.9 -184.2 631.5 -54.4C232.1 75.4 116 37.7 58 123.9C0 210 0 420 -69.9 516.3C-139.9 612.5 -279.8 595.1 -492 559.1C-704.3 523 -988.9 468.4 -1229.3 271.3C-1469.7 74.2 -1665.9 -265.4 -1679.4 -645.1C-1692.9 -1024.7 -1523.6 -1444.3 -1213.2 -1514.2C-902.8 -1584 -451.4 -1304 -123.9 -1133.4C203.6 -962.9 407.1 -901.7 806.6 -860.8" fill="rgb(122, 136, 255)"></path></g></svg>