<svg id="visual" viewBox="0 0 3440 1440" width="3440" height="1440" xmlns="http://www.w3.org/2000/svg" xmlns:xlink="http://www.w3.org/1999/xlink" version="1.1"><g transform="translate(1601.4341904201415 682.3110376271839)"><path d="M1173.6 -2019.6C1387.2 -1909.4 1334.5 -1324.7 1343 -909C1351.5 -493.3 1421.2 -246.7 1532.1 64C1642.9 374.7 1794.9 749.3 1772.6 1141.1C1750.2 1532.8 1553.6 1941.6 1229.1 2067.1C904.7 2192.6 452.3 2034.8 5.6 2025.1C-441.2 2015.5 -882.3 2153.9 -882.3 1841.1C-882.3 1528.2 -441.2 764.1 -547.8 382.1C-654.3 0 -1308.7 0 -1484.6 -101.6C-1660.6 -203.2 -1358.1 -406.3 -1170 -647.1C-981.8 -887.8 -907.9 -1166.2 -731.9 -1298.1C-556 -1430 -278 -1415.5 101 -1590.4C480 -1765.4 960 -2129.8 1173.6 -2019.6" fill="#FCAF3C"></path></g></svg>