<svg id="visual" viewBox="0 0 3440 1440" width="3440" height="1440" xmlns="http://www.w3.org/2000/svg" xmlns:xlink="http://www.w3.org/1999/xlink" version="1.1"><path d="M0 1038L41 1050.3C82 1062.7 164 1087.3 245.8 1077C327.7 1066.7 409.3 1021.3 491.2 973.3C573 925.3 655 874.7 737 891.8C819 909 901 994 983 1036.3C1065 1078.7 1147 1078.3 1228.8 1068.8C1310.7 1059.3 1392.3 1040.7 1474.2 1027.8C1556 1015 1638 1008 1720 988.8C1802 969.7 1884 938.3 1965.8 929.8C2047.7 921.3 2129.3 935.7 2211.2 967C2293 998.3 2375 1046.7 2457 1042.5C2539 1038.3 2621 981.7 2703 969.5C2785 957.3 2867 989.7 2948.8 1012.2C3030.7 1034.7 3112.3 1047.3 3194.2 1030.5C3276 1013.7 3358 967.3 3399 944.2L3440 921L3440 1441L3399 1441C3358 1441 3276 1441 3194.2 1441C3112.3 1441 3030.7 1441 2948.8 1441C2867 1441 2785 1441 2703 1441C2621 1441 2539 1441 2457 1441C2375 1441 2293 1441 2211.2 1441C2129.3 1441 2047.7 1441 1965.8 1441C1884 1441 1802 1441 1720 1441C1638 1441 1556 1441 1474.2 1441C1392.3 1441 1310.7 1441 1228.8 1441C1147 1441 1065 1441 983 1441C901 1441 819 1441 737 1441C655 1441 573 1441 491.2 1441C409.3 1441 327.7 1441 245.8 1441C164 1441 82 1441 41 1441L0 1441Z" fill="#86a8ff"></path><path d="M0 1093L41 1074.8C82 1056.7 164 1020.3 245.8 997C327.7 973.7 409.3 963.3 491.2 960.8C573 958.3 655 963.7 737 965.5C819 967.3 901 965.7 983 984C1065 1002.3 1147 1040.7 1228.8 1031.8C1310.7 1023 1392.3 967 1474.2 980.8C1556 994.7 1638 1078.3 1720 1121.3C1802 1164.3 1884 1166.7 1965.8 1141.7C2047.7 1116.7 2129.3 1064.3 2211.2 1032C2293 999.7 2375 987.3 2457 979.7C2539 972 2621 969 2703 957C2785 945 2867 924 2948.8 926.5C3030.7 929 3112.3 955 3194.2 976.3C3276 997.7 3358 1014.3 3399 1022.7L3440 1031L3440 1441L3399 1441C3358 1441 3276 1441 3194.2 1441C3112.3 1441 3030.7 1441 2948.8 1441C2867 1441 2785 1441 2703 1441C2621 1441 2539 1441 2457 1441C2375 1441 2293 1441 2211.2 1441C2129.3 1441 2047.7 1441 1965.8 1441C1884 1441 1802 1441 1720 1441C1638 1441 1556 1441 1474.2 1441C1392.3 1441 1310.7 1441 1228.8 1441C1147 1441 1065 1441 983 1441C901 1441 819 1441 737 1441C655 1441 573 1441 491.2 1441C409.3 1441 327.7 1441 245.8 1441C164 1441 82 1441 41 1441L0 1441Z" fill="#7d99f6"></path><path d="M0 1190L41 1191C82 1192 164 1194 245.8 1184C327.7 1174 409.3 1152 491.2 1141.2C573 1130.3 655 1130.7 737 1114.7C819 1098.7 901 1066.3 983 1073.5C1065 1080.7 1147 1127.3 1228.8 1148.2C1310.7 1169 1392.3 1164 1474.2 1141.8C1556 1119.7 1638 1080.3 1720 1054.3C1802 1028.3 1884 1015.7 1965.8 1007.2C2047.7 998.7 2129.3 994.3 2211.2 1023C2293 1051.7 2375 1113.3 2457 1123.2C2539 1133 2621 1091 2703 1063.3C2785 1035.7 2867 1022.3 2948.8 1044C3030.7 1065.7 3112.3 1122.3 3194.2 1129.7C3276 1137 3358 1095 3399 1074L3440 1053L3440 1441L3399 1441C3358 1441 3276 1441 3194.2 1441C3112.3 1441 3030.7 1441 2948.8 1441C2867 1441 2785 1441 2703 1441C2621 1441 2539 1441 2457 1441C2375 1441 2293 1441 2211.2 1441C2129.3 1441 2047.7 1441 1965.8 1441C1884 1441 1802 1441 1720 1441C1638 1441 1556 1441 1474.2 1441C1392.3 1441 1310.7 1441 1228.8 1441C1147 1441 1065 1441 983 1441C901 1441 819 1441 737 1441C655 1441 573 1441 491.2 1441C409.3 1441 327.7 1441 245.8 1441C164 1441 82 1441 41 1441L0 1441Z" fill="#758aec"></path><path d="M0 1077L41 1074.8C82 1072.7 164 1068.3 245.8 1095C327.7 1121.7 409.3 1179.3 491.2 1196.5C573 1213.7 655 1190.3 737 1175.7C819 1161 901 1155 983 1141.3C1065 1127.7 1147 1106.3 1228.8 1102.8C1310.7 1099.3 1392.3 1113.7 1474.2 1127.7C1556 1141.7 1638 1155.3 1720 1173.3C1802 1191.3 1884 1213.7 1965.8 1206.8C2047.7 1200 2129.3 1164 2211.2 1142.8C2293 1121.7 2375 1115.3 2457 1135.5C2539 1155.7 2621 1202.3 2703 1203.3C2785 1204.3 2867 1159.7 2948.8 1136.2C3030.7 1112.7 3112.3 1110.3 3194.2 1132.7C3276 1155 3358 1202 3399 1225.5L3440 1249L3440 1441L3399 1441C3358 1441 3276 1441 3194.2 1441C3112.3 1441 3030.7 1441 2948.8 1441C2867 1441 2785 1441 2703 1441C2621 1441 2539 1441 2457 1441C2375 1441 2293 1441 2211.2 1441C2129.3 1441 2047.7 1441 1965.8 1441C1884 1441 1802 1441 1720 1441C1638 1441 1556 1441 1474.2 1441C1392.3 1441 1310.7 1441 1228.8 1441C1147 1441 1065 1441 983 1441C901 1441 819 1441 737 1441C655 1441 573 1441 491.2 1441C409.3 1441 327.7 1441 245.8 1441C164 1441 82 1441 41 1441L0 1441Z" fill="#6f7be2"></path><path d="M0 1169L41 1192C82 1215 164 1261 245.8 1271.7C327.7 1282.3 409.3 1257.7 491.2 1232.3C573 1207 655 1181 737 1170.2C819 1159.3 901 1163.7 983 1184.8C1065 1206 1147 1244 1228.8 1244.7C1310.7 1245.3 1392.3 1208.7 1474.2 1202.5C1556 1196.3 1638 1220.7 1720 1216.8C1802 1213 1884 1181 1965.8 1189C2047.7 1197 2129.3 1245 2211.2 1271.3C2293 1297.7 2375 1302.3 2457 1286.5C2539 1270.7 2621 1234.3 2703 1207C2785 1179.7 2867 1161.3 2948.8 1161.8C3030.7 1162.3 3112.3 1181.7 3194.2 1208.3C3276 1235 3358 1269 3399 1286L3440 1303L3440 1441L3399 1441C3358 1441 3276 1441 3194.2 1441C3112.3 1441 3030.7 1441 2948.8 1441C2867 1441 2785 1441 2703 1441C2621 1441 2539 1441 2457 1441C2375 1441 2293 1441 2211.2 1441C2129.3 1441 2047.7 1441 1965.8 1441C1884 1441 1802 1441 1720 1441C1638 1441 1556 1441 1474.2 1441C1392.3 1441 1310.7 1441 1228.8 1441C1147 1441 1065 1441 983 1441C901 1441 819 1441 737 1441C655 1441 573 1441 491.2 1441C409.3 1441 327.7 1441 245.8 1441C164 1441 82 1441 41 1441L0 1441Z" fill="#6a6bd7"></path><path d="M0 1276L41 1267.3C82 1258.7 164 1241.3 245.8 1236.2C327.7 1231 409.3 1238 491.2 1239.3C573 1240.7 655 1236.3 737 1243.8C819 1251.3 901 1270.7 983 1272C1065 1273.3 1147 1256.7 1228.8 1246C1310.7 1235.3 1392.3 1230.7 1474.2 1248C1556 1265.3 1638 1304.7 1720 1315.2C1802 1325.7 1884 1307.3 1965.8 1299C2047.7 1290.7 2129.3 1292.3 2211.2 1295.2C2293 1298 2375 1302 2457 1290.2C2539 1278.3 2621 1250.7 2703 1255.8C2785 1261 2867 1299 2948.8 1316C3030.7 1333 3112.3 1329 3194.2 1325.2C3276 1321.3 3358 1317.7 3399 1315.8L3440 1314L3440 1441L3399 1441C3358 1441 3276 1441 3194.2 1441C3112.3 1441 3030.7 1441 2948.8 1441C2867 1441 2785 1441 2703 1441C2621 1441 2539 1441 2457 1441C2375 1441 2293 1441 2211.2 1441C2129.3 1441 2047.7 1441 1965.8 1441C1884 1441 1802 1441 1720 1441C1638 1441 1556 1441 1474.2 1441C1392.3 1441 1310.7 1441 1228.8 1441C1147 1441 1065 1441 983 1441C901 1441 819 1441 737 1441C655 1441 573 1441 491.2 1441C409.3 1441 327.7 1441 245.8 1441C164 1441 82 1441 41 1441L0 1441Z" fill="#665ccc"></path><path d="M0 1339L41 1347C82 1355 164 1371 245.8 1375.8C327.7 1380.7 409.3 1374.3 491.2 1375.2C573 1376 655 1384 737 1389C819 1394 901 1396 983 1387.5C1065 1379 1147 1360 1228.8 1359.3C1310.7 1358.7 1392.3 1376.3 1474.2 1381.3C1556 1386.3 1638 1378.7 1720 1376C1802 1373.3 1884 1375.7 1965.8 1375.5C2047.7 1375.3 2129.3 1372.7 2211.2 1368.8C2293 1365 2375 1360 2457 1358.2C2539 1356.3 2621 1357.7 2703 1352.8C2785 1348 2867 1337 2948.8 1336.8C3030.7 1336.7 3112.3 1347.3 3194.2 1345.7C3276 1344 3358 1330 3399 1323L3440 1316L3440 1441L3399 1441C3358 1441 3276 1441 3194.2 1441C3112.3 1441 3030.7 1441 2948.8 1441C2867 1441 2785 1441 2703 1441C2621 1441 2539 1441 2457 1441C2375 1441 2293 1441 2211.2 1441C2129.3 1441 2047.7 1441 1965.8 1441C1884 1441 1802 1441 1720 1441C1638 1441 1556 1441 1474.2 1441C1392.3 1441 1310.7 1441 1228.8 1441C1147 1441 1065 1441 983 1441C901 1441 819 1441 737 1441C655 1441 573 1441 491.2 1441C409.3 1441 327.7 1441 245.8 1441C164 1441 82 1441 41 1441L0 1441Z" fill="#634bc0"></path></svg>