<svg id="visual" viewBox="0 0 3440 1440" width="3440" height="1440" xmlns="http://www.w3.org/2000/svg" xmlns:xlink="http://www.w3.org/1999/xlink" version="1.1"><path d="M1130 0L1383 288L1374 576L1131 864L1169 1152L1369 1440L0 1440L0 1152L0 864L0 576L0 288L0 0Z" fill="#ffd21e"></path><path d="M1049 0L1100 288L1175 576L1019 864L1109 1152L1064 1440L0 1440L0 1152L0 864L0 576L0 288L0 0Z" fill="#d7b228"></path><path d="M893 0L982 288L1004 576L841 864L808 1152L822 1440L0 1440L0 1152L0 864L0 576L0 288L0 0Z" fill="#b0922c"></path><path d="M726 0L851 288L845 576L742 864L840 1152L754 1440L0 1440L0 1152L0 864L0 576L0 288L0 0Z" fill="#8b742d"></path><path d="M649 0L653 288L558 576L677 864L578 1152L542 1440L0 1440L0 1152L0 864L0 576L0 288L0 0Z" fill="#67572b"></path><path d="M467 0L491 288L462 576L371 864L465 1152L455 1440L0 1440L0 1152L0 864L0 576L0 288L0 0Z" fill="#453c28"></path><path d="M247 0L273 288L298 576L227 864L219 1152L222 1440L0 1440L0 1152L0 864L0 576L0 288L0 0Z" fill="#232323"></path></svg>