<svg id="visual" viewBox="0 0 3440 1440" width="3440" height="1440" xmlns="http://www.w3.org/2000/svg" xmlns:xlink="http://www.w3.org/1999/xlink" version="1.1"><g transform="translate(1608.2074529959134 701.702508174415)"><path d="M321.7 -217.6C643.5 -371.5 1286.9 -743 1766.9 -743C2246.9 -743 2563.5 -371.5 2314.8 -143.6C2066.1 84.3 1252.1 168.7 909.2 406.1C566.3 643.5 694.4 1034.1 621.4 1032.6C548.3 1031.1 274.2 637.5 132.8 407.6C-8.7 177.7 -17.3 111.4 -417.3 301.6C-817.3 491.9 -1608.5 938.7 -1950.8 931.2C-2293.2 923.7 -2186.6 461.8 -2034.2 88C-1881.7 -285.8 -1683.5 -571.7 -1448.7 -765.5C-1214 -959.4 -942.7 -1061.2 -695.2 -950.1C-447.7 -839 -223.8 -515 -111.9 -321.2C0 -127.3 0 -63.7 321.7 -217.6" fill="#ffe700"></path></g></svg>