<svg id="visual" viewBox="0 0 3440 1440" width="3440" height="1440" xmlns="http://www.w3.org/2000/svg" xmlns:xlink="http://www.w3.org/1999/xlink" version="1.1"><g transform="translate(-368.95412495883147 1196.5557039733774)"><path d="M746.9 -878.9C1122.7 -755 1688.8 -743.8 1813.9 -545.4C1938.9 -346.9 1622.8 38.8 1493.9 500.7C1364.9 962.6 1423.1 1500.7 1205.3 1729.1C987.5 1957.5 493.7 1876.2 43.7 1816.1C-406.4 1756 -812.7 1716.9 -812.7 1417.8C-812.7 1118.6 -406.4 559.3 -417.2 210.1C-428 -139.1 -856 -278.1 -1021.3 -505.7C-1186.7 -733.3 -1089.4 -1049.5 -875.4 -1225.9C-661.5 -1402.4 -330.7 -1439.2 -72.6 -1339.3C185.5 -1239.4 371.1 -1002.8 746.9 -878.9" fill="rgb(255, 144, 79)"></path></g></svg>