<svg id="visual" viewBox="0 0 3440 1440" width="3440" height="1440" xmlns="http://www.w3.org/2000/svg" xmlns:xlink="http://www.w3.org/1999/xlink" version="1.1"><g transform="translate(3685.0275920830363 223.35152068364562)"><path d="M389.7 -595.6C662.9 -337.8 1151.3 -435.3 1458.1 -286.1C1764.8 -136.9 1890.1 259 1616.8 347.7C1343.5 436.5 671.8 218.3 335.9 395.1C0 572 0 1144 -52.3 1216C-104.6 1288 -209.3 860 -608.7 703.8C-1008.1 547.6 -1702.4 663.2 -2027.3 468.6C-2352.3 274 -2307.9 -230.7 -2053 -559.5C-1798.2 -888.3 -1332.9 -1041.2 -955.6 -1265.3C-578.4 -1489.4 -289.2 -1784.7 -115.5 -1625.7C58.2 -1466.8 116.4 -853.5 389.7 -595.6" fill="rgb(0, 181, 255)"></path></g></svg>