<svg id="visual" viewBox="0 0 3440 1440" width="3440" height="1440" xmlns="http://www.w3.org/2000/svg" xmlns:xlink="http://www.w3.org/1999/xlink" version="1.1"><g><g transform="translate(1390 327)"><path d="M166 -56.6C187.7 12.6 158.7 95.6 102.4 135.1C46.1 174.7 -37.6 170.8 -90.8 130.8C-144 90.7 -166.8 14.6 -146.6 -52.7C-126.4 -120 -63.2 -178.3 4.5 -179.8C72.2 -181.3 144.4 -125.8 166 -56.6Z" fill="none" stroke="#6cac48" stroke-width="25"></path></g><g transform="translate(1198 1133)"><path d="M131.5 -41.2C153.8 26 143.9 105.1 97.1 140.8C50.3 176.5 -33.3 168.7 -86.1 128C-138.9 87.4 -160.8 14 -141.4 -49.2C-121.9 -112.5 -60.9 -165.6 -3.2 -164.5C54.6 -163.5 109.2 -108.4 131.5 -41.2Z" fill="none" stroke="#6cac48" stroke-width="25"></path></g><g transform="translate(2008 841)"><path d="M155.1 -44C175.2 11.6 148.1 89 98.7 121.6C49.3 154.1 -22.4 141.8 -79.2 102.2C-136 62.5 -177.9 -4.4 -162.2 -53.9C-146.5 -103.4 -73.2 -135.4 -2.9 -134.5C67.5 -133.5 134.9 -99.6 155.1 -44Z" fill="none" stroke="#6cac48" stroke-width="25"></path></g><g transform="translate(2708 896)"><path d="M152.5 -49.1C176.3 23.6 159.5 110 108.6 146.2C57.7 182.4 -27.3 168.5 -84 125.1C-140.6 81.7 -169 8.8 -150.3 -57C-131.6 -122.8 -65.8 -181.4 -0.7 -181.2C64.4 -181 128.8 -121.9 152.5 -49.1Z" fill="none" stroke="#6cac48" stroke-width="25"></path></g><g transform="translate(3077 424)"><path d="M118.3 -43.5C136.2 16.7 121.8 82.3 81.7 111.1C41.7 139.8 -24.1 131.8 -68.6 98.5C-113.1 65.2 -136.2 6.7 -121.3 -49.5C-106.3 -105.7 -53.1 -159.6 -1.5 -159.1C50.2 -158.6 100.4 -103.8 118.3 -43.5Z" fill="none" stroke="#6cac48" stroke-width="25"></path></g><g transform="translate(609 1091)"><path d="M130.5 -39.7C147.7 10.5 125.4 76.2 82.6 105.3C39.9 134.4 -23.4 126.8 -68.1 94.2C-112.9 61.6 -139.1 3.9 -124.7 -42.5C-110.2 -88.9 -55.1 -124 0.8 -124.2C56.6 -124.5 113.3 -89.8 130.5 -39.7Z" fill="none" stroke="#6cac48" stroke-width="25"></path></g><g transform="translate(313 343)"><path d="M149.3 -47.6C173.6 26.5 159.9 113.9 106.2 155C52.5 196.2 -41.3 191 -91.9 149C-142.5 106.9 -150 27.9 -127.4 -43.6C-104.9 -115.2 -52.5 -179.2 5 -180.8C62.4 -182.4 124.9 -121.7 149.3 -47.6Z" fill="none" stroke="#6cac48" stroke-width="25"></path></g><g transform="translate(2357 381)"><path d="M105.9 -36.5C123.7 20.5 115.3 83.8 75.7 115.2C36.1 146.6 -34.8 146.1 -86.5 110.5C-138.2 75 -170.7 4.5 -153.1 -52.2C-135.5 -108.9 -67.7 -151.7 -11.9 -147.8C44 -144 88.1 -93.4 105.9 -36.5Z" stroke="#6cac48" fill="none" stroke-width="25"></path></g></g></svg>