<svg id="visual" viewBox="0 0 3440 1440" width="3440" height="1440" xmlns="http://www.w3.org/2000/svg" xmlns:xlink="http://www.w3.org/1999/xlink" version="1.1"><g><g transform="translate(467 969)"><path d="M0 -356.9L309.1 -178.5L309.1 178.5L0 356.9L-309.1 178.5L-309.1 -178.5Z" fill="#749d7a"></path></g><g transform="translate(3104 215)"><path d="M0 -244L211.3 -122L211.3 122L0 244L-211.3 122L-211.3 -122Z" fill="#749d7a"></path></g><g transform="translate(1826 691)"><path d="M0 -266L230.4 -133L230.4 133L0 266L-230.4 133L-230.4 -133Z" fill="#ff8d6d"></path></g><g transform="translate(2737 1410)"><path d="M0 -291L252 -145.5L252 145.5L0 291L-252 145.5L-252 -145.5Z" fill="#749d7a"></path></g><g transform="translate(375 133)"><path d="M0 -144L124.7 -72L124.7 72L0 144L-124.7 72L-124.7 -72Z" fill="#ff8d6d"></path></g></g></svg>