<svg width="29" height="60" viewBox="0 0 29 60" fill="none" xmlns="http://www.w3.org/2000/svg">
<g filter="url(#filter0_d_11_31)">
<path d="M11.25 6.91C11.25 5.402 11.685 4.14533 12.555 3.14C13.425 2.11533 14.5367 1.35167 15.89 0.848999C17.2627 0.326998 18.674 0.0659971 20.124 0.0659971H24.329V4.851H21.806C20.704 4.851 19.892 4.98633 19.37 5.257C18.8673 5.52767 18.5483 5.895 18.413 6.359C18.2777 6.80366 18.21 7.30633 18.21 7.867V19.351C18.1713 20.7043 17.833 21.8063 17.195 22.657C16.5763 23.4883 15.803 24.107 14.875 24.513C13.947 24.919 13.0287 25.1703 12.12 25.267C11.888 25.2863 11.7623 25.3443 11.743 25.441C11.743 25.5377 11.8687 25.6053 12.12 25.644C13.0093 25.7213 13.918 25.9533 14.846 26.34C15.774 26.7073 16.557 27.326 17.195 28.196C17.833 29.066 18.1713 30.2937 18.21 31.879V43.479C18.21 44.5423 18.4613 45.3157 18.964 45.799C19.4667 46.2823 20.414 46.524 21.806 46.524H24.329V51.338H20.269C18.7417 51.338 17.282 51.077 15.89 50.555C14.5173 50.033 13.396 49.2597 12.526 48.235C11.6753 47.2103 11.25 45.9343 11.25 44.407V32.604C11.25 31.6953 11.018 30.864 10.554 30.11C10.1093 29.356 9.40367 28.747 8.437 28.283C7.47033 27.819 6.22333 27.587 4.696 27.587V23.324C7.016 23.3047 8.68833 22.8503 9.713 21.961C10.7377 21.0523 11.25 19.757 11.25 18.075V6.91Z" fill="#232323"/>
<path d="M12.555 3.14L15.5797 5.75751L15.592 5.74327L15.6042 5.72892L12.555 3.14ZM15.89 0.848999L17.2827 4.5987L17.2973 4.5933L17.3118 4.58778L15.89 0.848999ZM24.329 0.0659971H28.329V-3.934H24.329V0.0659971ZM24.329 4.851V8.851H28.329V4.851H24.329ZM19.37 5.257L17.5287 1.70598L17.5011 1.72033L17.4736 1.73512L19.37 5.257ZM18.413 6.359L22.2397 7.52364L22.2465 7.50136L22.253 7.479L18.413 6.359ZM18.21 19.351L22.2084 19.4652L22.21 19.4081V19.351H18.21ZM17.195 22.657L13.995 20.257L13.9905 20.263L13.9861 20.269L17.195 22.657ZM14.875 24.513L13.2717 20.8484H13.2717L14.875 24.513ZM12.12 25.267L12.4522 29.2532L12.4977 29.2494L12.5431 29.2446L12.12 25.267ZM11.743 25.441L7.82068 24.6565L7.743 25.0449V25.441H11.743ZM12.12 25.644L11.5118 29.5975L11.6421 29.6175L11.7735 29.629L12.12 25.644ZM14.846 26.34L13.3075 30.0323L13.3406 30.0461L13.3738 30.0592L14.846 26.34ZM17.195 28.196L13.9694 30.5615H13.9694L17.195 28.196ZM18.21 31.879H22.21V31.8302L22.2088 31.7815L18.21 31.879ZM18.964 45.799L16.1916 48.6823L18.964 45.799ZM24.329 46.524H28.329V42.524H24.329V46.524ZM24.329 51.338V55.338H28.329V51.338H24.329ZM15.89 50.555L14.4682 54.2938L14.4769 54.2971L14.4855 54.3003L15.89 50.555ZM12.526 48.235L9.44836 50.79L9.4625 50.8071L9.47682 50.8239L12.526 48.235ZM10.554 30.11L7.10854 32.1419L7.12765 32.1743L7.14737 32.2064L10.554 30.11ZM8.437 28.283L10.1679 24.6769L8.437 28.283ZM4.696 27.587H0.696V31.587H4.696V27.587ZM4.696 23.324L4.66267 19.3241L0.696 19.3572V23.324H4.696ZM9.713 21.961L12.3349 24.9819L12.351 24.9679L12.3669 24.9538L9.713 21.961ZM15.25 6.91C15.25 6.22579 15.4233 5.93821 15.5797 5.75751L9.53033 0.52249C7.94671 2.35245 7.25 4.5782 7.25 6.91H15.25ZM15.6042 5.72892C15.9979 5.26518 16.5228 4.88095 17.2827 4.5987L14.4973 -2.9007C12.5505 -2.17762 10.8521 -1.03452 9.50582 0.551075L15.6042 5.72892ZM17.3118 4.58778C18.2363 4.23622 19.1662 4.066 20.124 4.066V-3.934C18.1818 -3.934 16.2891 -3.58222 14.4682 -2.88978L17.3118 4.58778ZM20.124 4.066H24.329V-3.934H20.124V4.066ZM20.329 0.0659971V4.851H28.329V0.0659971H20.329ZM24.329 0.851H21.806V8.851H24.329V0.851ZM21.806 0.851C20.5308 0.851 18.9254 0.981803 17.5287 1.70598L21.2113 8.80802C21.0896 8.87109 21.0056 8.89843 20.9805 8.90607C20.9545 8.91398 20.9668 8.90829 21.0281 8.89808C21.1581 8.87641 21.4065 8.851 21.806 8.851V0.851ZM17.4736 1.73512C16.2118 2.41453 15.0623 3.56143 14.573 5.23899L22.253 7.479C22.1579 7.80497 21.9903 8.109 21.7739 8.35825C21.5664 8.59712 21.3685 8.72392 21.2664 8.77888L17.4736 1.73512ZM14.5863 5.19435C14.3153 6.08496 14.21 6.9902 14.21 7.867H22.21C22.21 7.62247 22.2401 7.52237 22.2397 7.52364L14.5863 5.19435ZM14.21 7.867V19.351H22.21V7.867H14.21ZM14.2116 19.2368C14.1901 19.9902 14.0168 20.228 13.995 20.257L20.395 25.057C21.6492 23.3847 22.1526 21.4185 22.2084 19.4652L14.2116 19.2368ZM13.9861 20.269C13.7725 20.5559 13.5474 20.7277 13.2717 20.8484L16.4783 28.1776C18.0586 27.4863 19.3801 26.4208 20.4039 25.045L13.9861 20.269ZM13.2717 20.8484C12.6785 21.1079 12.1569 21.2405 11.6969 21.2894L12.5431 29.2446C13.9004 29.1002 15.2155 28.7301 16.4783 28.1776L13.2717 20.8484ZM11.7878 21.2808C11.4792 21.3065 10.8546 21.3797 10.1755 21.6932C9.45345 22.0264 8.17259 22.897 7.82068 24.6565L15.6653 26.2255C15.3327 27.8884 14.1244 28.6816 13.528 28.9568C12.9745 29.2123 12.5288 29.2468 12.4522 29.2532L11.7878 21.2808ZM7.743 25.441C7.743 27.6021 9.26673 28.7231 9.94084 29.0861C10.6034 29.4429 11.2303 29.5542 11.5118 29.5975L12.7282 21.6905C12.7584 21.6952 13.1967 21.7533 13.7337 22.0424C14.2821 22.3377 15.743 23.3766 15.743 25.441H7.743ZM11.7735 29.629C12.2047 29.6665 12.7122 29.7842 13.3075 30.0323L16.3845 22.6477C15.1238 22.1224 13.8139 21.7762 12.4665 21.659L11.7735 29.629ZM13.3738 30.0592C13.5448 30.1269 13.7392 30.2476 13.9694 30.5615L20.4206 25.8305C19.3748 24.4044 18.0032 23.2878 16.3182 22.6208L13.3738 30.0592ZM13.9694 30.5615C13.9456 30.529 14.1836 30.8436 14.2112 31.9765L22.2088 31.7815C22.1591 29.7437 21.7204 27.6029 20.4206 25.8305L13.9694 30.5615ZM14.21 31.879V43.479H22.21V31.879H14.21ZM14.21 43.479C14.21 45.0664 14.5744 47.1274 16.1916 48.6823L21.7364 42.9157C22.0323 43.2002 22.1589 43.4856 22.2026 43.6202C22.2396 43.734 22.21 43.7125 22.21 43.479H14.21ZM16.1916 48.6823C17.8984 50.3235 20.2697 50.524 21.806 50.524V42.524C21.5712 42.524 21.3902 42.5137 21.2564 42.4999C21.1212 42.4859 21.0538 42.4703 21.0402 42.4669C21.0254 42.4631 21.0933 42.4785 21.2132 42.5385C21.3358 42.5997 21.5284 42.7156 21.7364 42.9157L16.1916 48.6823ZM21.806 50.524H24.329V42.524H21.806V50.524ZM20.329 46.524V51.338H28.329V46.524H20.329ZM24.329 47.338H20.269V55.338H24.329V47.338ZM20.269 47.338C19.208 47.338 18.225 47.1586 17.2945 46.8097L14.4855 54.3003C16.339 54.9954 18.2754 55.338 20.269 55.338V47.338ZM17.3118 46.8162C16.5101 46.5113 15.9688 46.1096 15.5752 45.6461L9.47682 50.8239C10.8232 52.4097 12.5246 53.5547 14.4682 54.2938L17.3118 46.8162ZM15.6036 45.68C15.4354 45.4773 15.25 45.1459 15.25 44.407H7.25C7.25 46.7228 7.91526 48.9433 9.44836 50.79L15.6036 45.68ZM15.25 44.407V32.604H7.25V44.407H15.25ZM15.25 32.604C15.25 30.9756 14.8232 29.4153 13.9606 28.0136L7.14737 32.2064C7.21278 32.3127 7.25 32.415 7.25 32.604H15.25ZM13.9995 28.0781C13.0693 26.5009 11.6873 25.4062 10.1679 24.6769L6.70608 31.8891C6.91772 31.9907 7.02893 32.0738 7.07785 32.116C7.1224 32.1544 7.12142 32.1638 7.10854 32.1419L13.9995 28.0781ZM10.1679 24.6769C8.48196 23.8676 6.58575 23.587 4.696 23.587V31.587C5.86091 31.587 6.45871 31.7704 6.70608 31.8891L10.1679 24.6769ZM8.696 27.587V23.324H0.696V27.587H8.696ZM4.72933 27.3239C7.38324 27.3017 10.2325 26.8066 12.3349 24.9819L7.09111 18.9401C7.14132 18.8965 7.05271 18.997 6.64156 19.1087C6.22652 19.2214 5.58752 19.3164 4.66267 19.3241L4.72933 27.3239ZM12.3669 24.9538C14.4387 23.1166 15.25 20.6184 15.25 18.075H7.25C7.25 18.5141 7.18296 18.7437 7.14613 18.8368C7.11676 18.9111 7.0934 18.9378 7.05905 18.9682L12.3669 24.9538ZM15.25 18.075V6.91H7.25V18.075H15.25Z" fill="#BBB6B0"/>
</g>
<defs>
<filter id="filter0_d_11_31" x="0.696045" y="0.0660095" width="27.6329" height="59.272" filterUnits="userSpaceOnUse" color-interpolation-filters="sRGB">
<feFlood flood-opacity="0" result="BackgroundImageFix"/>
<feColorMatrix in="SourceAlpha" type="matrix" values="0 0 0 0 0 0 0 0 0 0 0 0 0 0 0 0 0 0 127 0" result="hardAlpha"/>
<feOffset dy="4"/>
<feGaussianBlur stdDeviation="2"/>
<feComposite in2="hardAlpha" operator="out"/>
<feColorMatrix type="matrix" values="0 0 0 0 0 0 0 0 0 0 0 0 0 0 0 0 0 0 0.75 0"/>
<feBlend mode="normal" in2="BackgroundImageFix" result="effect1_dropShadow_11_31"/>
<feBlend mode="normal" in="SourceGraphic" in2="effect1_dropShadow_11_31" result="shape"/>
</filter>
</defs>
</svg>
