<svg width="29" height="60" viewBox="0 0 29 60" fill="none" xmlns="http://www.w3.org/2000/svg">
<g filter="url(#filter0_d_11_32)">
<path d="M17.92 6.91C17.92 5.402 17.485 4.14533 16.615 3.14C15.745 2.11533 14.6237 1.35167 13.251 0.848999C11.8977 0.326998 10.496 0.0659971 9.046 0.0659971H4.841V4.851H7.364C8.466 4.851 9.26833 4.98633 9.771 5.257C10.293 5.52767 10.6217 5.895 10.757 6.359C10.8923 6.80366 10.96 7.30633 10.96 7.867V19.351C10.9987 20.7043 11.3273 21.8063 11.946 22.657C12.584 23.4883 13.367 24.107 14.295 24.513C15.223 24.919 16.1413 25.1703 17.05 25.267C17.282 25.2863 17.398 25.3443 17.398 25.441C17.4173 25.5377 17.3013 25.6053 17.05 25.644C16.1607 25.7213 15.252 25.9533 14.324 26.34C13.396 26.7073 12.613 27.326 11.975 28.196C11.337 29.066 10.9987 30.2937 10.96 31.879V43.479C10.96 44.5423 10.7087 45.3157 10.206 45.799C9.70333 46.2823 8.756 46.524 7.364 46.524H4.841V51.338H8.901C10.4283 51.338 11.8783 51.077 13.251 50.555C14.643 50.033 15.7643 49.2597 16.615 48.235C17.485 47.2103 17.92 45.9343 17.92 44.407V32.604C17.92 31.6953 18.1423 30.864 18.587 30.11C19.051 29.356 19.7663 28.747 20.733 28.283C21.6997 27.819 22.9467 27.587 24.474 27.587V23.324C22.154 23.3047 20.4817 22.8503 19.457 21.961C18.4323 21.0523 17.92 19.757 17.92 18.075V6.91Z" fill="#232323"/>
<path d="M16.615 3.14L13.5658 5.72892L13.578 5.74327L13.5903 5.75751L16.615 3.14ZM13.251 0.848999L11.8115 4.58101L11.8434 4.59331L11.8755 4.60507L13.251 0.848999ZM4.841 0.0659971V-3.934H0.841V0.0659971H4.841ZM4.841 4.851H0.841V8.851H4.841V4.851ZM9.771 5.257L7.87461 8.77888L7.90205 8.79366L7.92973 8.80801L9.771 5.257ZM10.757 6.359L6.917 7.479L6.92352 7.50136L6.9303 7.52364L10.757 6.359ZM10.96 19.351H6.96V19.4081L6.96163 19.4652L10.96 19.351ZM11.946 22.657L8.71106 25.0097L8.74138 25.0514L8.77276 25.0923L11.946 22.657ZM14.295 24.513L15.8983 20.8484H15.8983L14.295 24.513ZM17.05 25.267L16.6269 29.2446L16.6723 29.2494L16.7178 29.2532L17.05 25.267ZM17.398 25.441H13.398V25.8371L13.4757 26.2255L17.398 25.441ZM17.05 25.644L17.3965 29.629L17.5279 29.6175L17.6582 29.5975L17.05 25.644ZM14.324 26.34L15.7962 30.0592L15.8294 30.0461L15.8625 30.0323L14.324 26.34ZM11.975 28.196L8.74938 25.8305H8.74938L11.975 28.196ZM10.96 31.879L6.96119 31.7815L6.96 31.8302V31.879H10.96ZM10.206 45.799L12.9784 48.6823L12.9784 48.6823L10.206 45.799ZM4.841 46.524V42.524H0.841V46.524H4.841ZM4.841 51.338H0.841V55.338H4.841V51.338ZM13.251 50.555L11.8465 46.8097L11.8378 46.8129L11.8292 46.8162L13.251 50.555ZM16.615 48.235L13.5658 45.6461L13.5515 45.6629L13.5374 45.68L16.615 48.235ZM18.587 30.11L15.1804 28.0136L15.1606 28.0457L15.1415 28.0781L18.587 30.11ZM24.474 27.587V31.587H28.474V27.587H24.474ZM24.474 23.324H28.474V19.3572L24.5073 19.3241L24.474 23.324ZM19.457 21.961L16.8031 24.9538L16.819 24.9679L16.8351 24.9819L19.457 21.961ZM21.92 6.91C21.92 4.5782 21.2233 2.35245 19.6397 0.522491L13.5903 5.75751C13.7467 5.93821 13.92 6.22579 13.92 6.91H21.92ZM19.6642 0.551074C18.3079 -1.04631 16.5901 -2.188 14.6265 -2.90708L11.8755 4.60507C12.6572 4.89133 13.1821 5.27697 13.5658 5.72892L19.6642 0.551074ZM14.6905 -2.88301C12.8781 -3.58208 10.9884 -3.934 9.046 -3.934V4.066C10.0036 4.066 10.9173 4.23608 11.8115 4.58101L14.6905 -2.88301ZM9.046 -3.934H4.841V4.066H9.046V-3.934ZM0.841 0.0659971V4.851H8.841V0.0659971H0.841ZM4.841 8.851H7.364V0.851H4.841V8.851ZM7.364 8.851C7.7646 8.851 8.00712 8.87657 8.12695 8.89678C8.18286 8.90621 8.18638 8.91026 8.14955 8.8988C8.11386 8.8877 8.01386 8.85387 7.87461 8.77888L11.6674 1.73511C10.2568 0.975536 8.61958 0.851 7.364 0.851V8.851ZM7.92973 8.80801C7.84144 8.76223 7.64264 8.64253 7.42804 8.40268C7.20225 8.15033 7.01996 7.83201 6.917 7.479L14.597 5.23899C14.0911 3.50434 12.8791 2.36285 11.6123 1.70598L7.92973 8.80801ZM6.9303 7.52364C6.92992 7.52237 6.96 7.62247 6.96 7.867H14.96C14.96 6.9902 14.8547 6.08496 14.5837 5.19435L6.9303 7.52364ZM6.96 7.867V19.351H14.96V7.867H6.96ZM6.96163 19.4652C7.01675 21.3944 7.49862 23.3426 8.71106 25.0097L15.1809 20.3043C15.156 20.2701 14.9806 20.0143 14.9584 19.2368L6.96163 19.4652ZM8.77276 25.0923C9.80713 26.4401 11.1231 27.4914 12.6917 28.1776L15.8983 20.8484C15.6109 20.7226 15.3609 20.5366 15.1192 20.2217L8.77276 25.0923ZM12.6917 28.1776C13.9545 28.7301 15.2696 29.1002 16.6269 29.2446L17.4731 21.2894C17.0131 21.2405 16.4915 21.1079 15.8983 20.8484L12.6917 28.1776ZM16.7178 29.2532C16.6648 29.2488 16.1473 29.2153 15.5222 28.9027C15.1767 28.73 14.6393 28.3931 14.1763 27.7757C13.6715 27.1027 13.398 26.2823 13.398 25.441H21.398C21.398 23.3555 19.9727 22.1837 19.0999 21.7473C18.3587 21.3767 17.6672 21.3046 17.3822 21.2808L16.7178 29.2532ZM13.4757 26.2255C13.2949 25.3218 13.4347 24.338 13.9394 23.48C14.3879 22.7175 14.976 22.304 15.31 22.1091C15.9179 21.7545 16.4339 21.6917 16.4418 21.6905L17.6582 29.5975C17.9174 29.5576 18.6171 29.4416 19.341 29.0194C19.733 28.7907 20.3622 28.3397 20.8349 27.5361C21.3638 26.637 21.5107 25.6085 21.3203 24.6565L13.4757 26.2255ZM16.7035 21.659C15.3561 21.7762 14.0462 22.1224 12.7855 22.6477L15.8625 30.0323C16.4578 29.7842 16.9653 29.6665 17.3965 29.629L16.7035 21.659ZM12.8518 22.6208C11.1668 23.2878 9.79524 24.4044 8.74938 25.8305L15.2006 30.5615C15.4308 30.2476 15.6252 30.1269 15.7962 30.0592L12.8518 22.6208ZM8.74938 25.8305C7.44962 27.603 7.01089 29.7437 6.96119 31.7815L14.9588 31.9765C14.9864 30.8436 15.2244 30.529 15.2006 30.5615L8.74938 25.8305ZM6.96 31.879V43.479H14.96V31.879H6.96ZM6.96 43.479C6.96 43.7125 6.93037 43.734 6.96736 43.6202C7.0111 43.4856 7.13767 43.2002 7.43356 42.9157L12.9784 48.6823C14.5956 47.1274 14.96 45.0664 14.96 43.479H6.96ZM7.43357 42.9157C7.64163 42.7156 7.83423 42.5997 7.95677 42.5385C8.0767 42.4785 8.14458 42.4631 8.12976 42.4669C8.11618 42.4703 8.04884 42.4859 7.91359 42.4999C7.77979 42.5137 7.59884 42.524 7.364 42.524V50.524C8.90027 50.524 11.2716 50.3236 12.9784 48.6823L7.43357 42.9157ZM7.364 42.524H4.841V50.524H7.364V42.524ZM0.841 46.524V51.338H8.841V46.524H0.841ZM4.841 55.338H8.901V47.338H4.841V55.338ZM8.901 55.338C10.8945 55.338 12.8279 54.9954 14.6728 54.2938L11.8292 46.8162C10.9288 47.1586 9.9622 47.338 8.901 47.338V55.338ZM14.6555 54.3003C16.6218 53.563 18.3473 52.4105 19.6926 50.79L13.5374 45.68C13.1814 46.1088 12.6642 46.503 11.8465 46.8097L14.6555 54.3003ZM19.6642 50.8239C21.2314 48.9781 21.92 46.7454 21.92 44.407H13.92C13.92 45.1232 13.7386 45.4426 13.5658 45.6461L19.6642 50.8239ZM21.92 44.407V32.604H13.92V44.407H21.92ZM21.92 32.604C21.92 32.3816 21.965 32.2563 22.0325 32.1419L15.1415 28.0781C14.3196 29.4717 13.92 31.0091 13.92 32.604H21.92ZM21.9936 32.2064C21.9946 32.2048 21.9981 32.1992 22.007 32.189C22.0161 32.1785 22.0338 32.1596 22.0645 32.1335C22.1262 32.0809 22.248 31.9927 22.4639 31.8891L19.0021 24.6769C17.4909 25.4023 16.1244 26.4796 15.1804 28.0136L21.9936 32.2064ZM22.4639 31.8891C22.7113 31.7704 23.3091 31.587 24.474 31.587V23.587C22.5842 23.587 20.688 23.8676 19.0021 24.6769L22.4639 31.8891ZM28.474 27.587V23.324H20.474V27.587H28.474ZM24.5073 19.3241C23.5825 19.3164 22.9435 19.2214 22.5284 19.1087C22.1173 18.997 22.0287 18.8965 22.0789 18.9401L16.8351 24.9819C18.9375 26.8066 21.7868 27.3017 24.4407 27.3239L24.5073 19.3241ZM22.1109 18.9682C22.0766 18.9378 22.0532 18.9111 22.0239 18.8368C21.987 18.7437 21.92 18.5141 21.92 18.075H13.92C13.92 20.6184 14.7313 23.1166 16.8031 24.9538L22.1109 18.9682ZM21.92 18.075V6.91H13.92V18.075H21.92Z" fill="#BBB6B0"/>
</g>
<defs>
<filter id="filter0_d_11_32" x="0.840942" y="0.0660095" width="27.6331" height="59.272" filterUnits="userSpaceOnUse" color-interpolation-filters="sRGB">
<feFlood flood-opacity="0" result="BackgroundImageFix"/>
<feColorMatrix in="SourceAlpha" type="matrix" values="0 0 0 0 0 0 0 0 0 0 0 0 0 0 0 0 0 0 127 0" result="hardAlpha"/>
<feOffset dy="4"/>
<feGaussianBlur stdDeviation="2"/>
<feComposite in2="hardAlpha" operator="out"/>
<feColorMatrix type="matrix" values="0 0 0 0 0 0 0 0 0 0 0 0 0 0 0 0 0 0 0.75 0"/>
<feBlend mode="normal" in2="BackgroundImageFix" result="effect1_dropShadow_11_32"/>
<feBlend mode="normal" in="SourceGraphic" in2="effect1_dropShadow_11_32" result="shape"/>
</filter>
</defs>
</svg>
