<svg width="530" height="442" viewBox="0 0 530 442" fill="none" xmlns="http://www.w3.org/2000/svg">
<path opacity="0.2" fill-rule="evenodd" clip-rule="evenodd" d="M374.947 452.717C358.777 455.358 343.527 444.392 340.885 428.222C338.244 412.051 349.211 396.801 365.381 394.16L545.58 364.719L470.715 198.746C463.978 183.811 470.624 166.242 485.559 159.505C500.495 152.768 518.063 159.414 524.8 174.35L614.815 373.907C619.653 384.632 617.589 396.715 610.511 405.17C606.084 411.484 599.214 416.077 591.002 417.418L374.947 452.717Z" fill="#232323"/>
<path opacity="0.2" fill-rule="evenodd" clip-rule="evenodd" d="M170.999 374.705C178.248 389.398 196.037 395.433 210.73 388.183C225.423 380.934 231.458 363.146 224.209 348.452L143.422 184.708L321.994 149.154C338.063 145.955 348.495 130.334 345.296 114.265C342.097 98.1963 326.477 87.7634 310.408 90.9628L95.7022 133.711C84.1631 136.009 75.5304 144.711 72.7649 155.385C70.2003 162.658 70.4559 170.918 74.1374 178.379L170.999 374.705Z" fill="#232323"/>
<rect opacity="0.2" x="410.781" y="142.54" width="52.3726" height="274.281" rx="26.1863" transform="rotate(38.4391 410.781 142.54)" fill="#232323"/>
</svg>
