<svg width="200" height="69" viewBox="0 0 200 69" fill="none" xmlns="http://www.w3.org/2000/svg">
<rect width="200" height="68.5" rx="7" fill="#D9D9D9"/>
<path d="M144.717 16.8896C143.403 17.1885 142.209 18.0244 141.581 19.1002C141.029 20.0112 133.591 47.7444 133.591 48.8348C133.591 49.8952 134.084 50.7909 135.01 51.3587L135.727 51.8069H157.994H180.262L180.949 51.4935C181.785 51.1051 182.651 50.3588 183.129 49.5971C183.667 48.7298 191.09 20.9812 191.09 19.802C191.09 18.383 190.268 17.3226 188.864 16.9348C188.341 16.7847 145.375 16.7402 144.717 16.8896ZM186.46 19.3837C186.46 19.458 163.431 35.1992 162.565 35.737C161.4 36.4389 161.863 36.8419 153.962 28.3293C150.034 24.0882 146.555 20.3246 146.241 19.966L145.659 19.3239H166.06C177.275 19.3239 186.46 19.3538 186.46 19.3837ZM150.318 27.9561C153.454 31.3466 155.994 34.154 155.964 34.1686C155.949 34.1832 155.083 34.7808 154.052 35.4827C153.022 36.1692 148.795 39.067 144.644 41.9043C135.28 48.2961 136.221 47.6839 136.325 47.3253C136.37 47.1613 136.982 44.8765 137.684 42.2476C139.686 34.7057 143.3 21.2195 143.404 20.9061C143.493 20.5636 142.94 20.0104 150.318 27.9561ZM184.847 34.6015C182.89 41.8898 181.247 47.8785 181.188 47.8931C181.144 47.9084 178.306 44.9209 174.901 41.2469L168.703 34.5709L169.181 34.2276C171.973 32.227 188.341 21.146 188.356 21.2356C188.386 21.2954 186.803 27.314 184.847 34.6015ZM158.846 37.1553C159.816 38.1108 160.07 38.2755 160.772 38.4249C162.086 38.7084 162.907 38.4548 164.849 37.1553C165.76 36.5431 166.551 36.0504 166.627 36.0504C166.686 36.0504 169.509 39.0226 172.884 42.6514L179.022 49.2677L168.867 49.3121C163.281 49.3274 154.082 49.3274 148.437 49.3121L138.177 49.2677L147.854 42.6514C153.186 39.0226 157.577 36.0504 157.621 36.0504C157.681 36.0504 158.219 36.5431 158.846 37.1553Z" fill="black"/>
<path d="M127.692 22.2363C127.453 22.46 127.319 22.7742 127.319 23.0577C127.319 23.3412 127.453 23.6553 127.692 23.8791L128.051 24.2522H131.65H135.248L135.607 23.8791C135.846 23.6553 135.98 23.3412 135.98 23.0577C135.98 22.7742 135.846 22.46 135.607 22.2363L135.248 21.8632H131.65H128.051L127.692 22.2363Z" fill="black"/>
<path d="M121.42 32.2423C121.181 32.4661 121.047 32.7802 121.047 33.0637C121.047 33.3472 121.181 33.6614 121.42 33.8851L121.778 34.2582H127.289H132.8L133.113 33.915C133.561 33.4369 133.546 32.7051 133.069 32.2423L132.71 31.8692H127.244H121.778L121.42 32.2423Z" fill="black"/>
<path d="M116.386 42.3227C116.013 42.7112 115.954 42.8606 116.028 43.2636C116.222 44.2942 115.983 44.2643 123.525 44.2643C130.112 44.2643 130.321 44.2497 130.604 43.9655C131.067 43.5027 131.007 42.5763 130.515 42.1886C130.126 41.8752 129.962 41.8752 123.481 41.8752H116.835L116.386 42.3227Z" fill="black"/>
<path d="M11.85 44L15.93 24.68H30.18L29.4 28.4H19.98L19.11 32.45H27.42L26.64 36.23H18.33L17.46 40.28H26.88L26.1 44H11.85ZM29.182 37.55L29.992 33.8H41.842L41.032 37.55H29.182ZM42.143 44L45.143 29.78H49.613L49.493 31.04C50.253 30.58 51.053 30.21 51.893 29.93C52.753 29.63 53.643 29.48 54.563 29.48C55.523 29.48 56.243 29.63 56.723 29.93C57.203 30.21 57.543 30.61 57.743 31.13C58.503 30.65 59.323 30.26 60.203 29.96C61.103 29.64 62.113 29.48 63.233 29.48C64.893 29.48 66.013 29.95 66.593 30.89C67.173 31.81 67.293 33.08 66.953 34.7L65.003 44H60.233L62.063 35.27C62.223 34.49 62.173 33.93 61.913 33.59C61.673 33.23 61.183 33.05 60.443 33.05C59.983 33.05 59.513 33.15 59.033 33.35C58.553 33.53 58.123 33.79 57.743 34.13C57.743 34.35 57.723 34.56 57.683 34.76C57.663 34.96 57.623 35.2 57.563 35.48L55.763 44H51.263L53.123 35.21C53.283 34.49 53.273 33.95 53.093 33.59C52.913 33.23 52.473 33.05 51.773 33.05C51.273 33.05 50.773 33.17 50.273 33.41C49.773 33.63 49.313 33.94 48.893 34.34L46.853 44H42.143ZM73.1548 44.3C71.1948 44.3 69.7648 43.73 68.8648 42.59C67.9648 41.45 67.7548 39.74 68.2348 37.46C68.5748 35.88 69.1248 34.5 69.8848 33.32C70.6448 32.12 71.6148 31.18 72.7948 30.5C73.9948 29.82 75.3848 29.48 76.9648 29.48C77.7848 29.48 78.4448 29.58 78.9448 29.78C79.4448 29.96 79.9148 30.23 80.3548 30.59L80.5048 29.78H85.3348L82.3348 44H78.1648L78.1348 42.8C76.7348 43.8 75.0748 44.3 73.1548 44.3ZM75.4648 40.79C76.5248 40.79 77.5048 40.43 78.4048 39.71L79.6048 34.01C79.2048 33.35 78.4948 33.02 77.4748 33.02C76.3348 33.02 75.4148 33.38 74.7148 34.1C74.0148 34.8 73.4948 35.92 73.1548 37.46C72.8948 38.72 72.9348 39.59 73.2748 40.07C73.6348 40.55 74.3648 40.79 75.4648 40.79ZM89.8245 27.53L90.6045 23.9H95.8545L95.0745 27.53H89.8245ZM86.7345 44L88.9845 33.35H86.8845L88.0545 29.78H94.5645L91.5645 44H86.7345ZM98.9323 44.3C97.4923 44.3 96.4723 43.96 95.8723 43.28C95.2923 42.6 95.1623 41.51 95.4823 40.01L98.9323 23.78H103.762L100.402 39.53C100.322 39.99 100.352 40.31 100.492 40.49C100.652 40.65 100.922 40.73 101.302 40.73C101.842 40.73 102.332 40.66 102.772 40.52L102.082 43.79C101.582 43.97 101.092 44.1 100.612 44.18C100.152 44.26 99.5923 44.3 98.9323 44.3Z" fill="#232323"/>
</svg>
