<svg width="120" height="41" viewBox="0 0 120 41" fill="none" xmlns="http://www.w3.org/2000/svg">
<rect width="120" height="40.396" rx="5" fill="#232323"/>
<path d="M85.6865 8.05494C85.6865 6.92763 86.6281 6.01321 87.7897 6.01321H112.043C113.205 6.01321 114.147 6.92763 114.147 8.05494V32.4738C114.147 33.6015 113.205 34.5155 112.043 34.5155H87.7897C86.6281 34.5155 85.6865 33.6015 85.6865 32.4738V8.05494Z" fill="#BBB6B0"/>
<path fill-rule="evenodd" clip-rule="evenodd" d="M6.01697 29.8878H17.8942V26.0074H10.3152V11.2023H6.01697V29.8878Z" fill="#F9F9F9"/>
<path fill-rule="evenodd" clip-rule="evenodd" d="M23.9076 29.8878V17.0178H19.609V29.8878H23.9076ZM21.7583 15.2606C23.2573 15.2606 24.1904 14.2723 24.1904 13.0364C24.1624 11.7739 23.2573 10.8134 21.7869 10.8134C20.3163 10.8134 19.3549 11.7739 19.3549 13.0364C19.3549 14.2723 20.2877 15.2606 21.7303 15.2606H21.7583Z" fill="#F9F9F9"/>
<path fill-rule="evenodd" clip-rule="evenodd" d="M25.9034 29.8878H30.2021V22.7005C30.2021 22.3158 30.23 21.9315 30.3437 21.6565C30.6543 20.8884 31.3615 20.0924 32.5491 20.0924C34.1047 20.0924 34.727 21.273 34.727 23.0021V29.8878H39.0252V22.5081C39.0252 18.5549 36.9043 16.7154 34.0761 16.7154C31.7573 16.7154 30.7391 18.0054 30.1735 18.884H30.2022V17.0178H25.9035C25.96 18.2255 25.9034 29.8878 25.9034 29.8878Z" fill="#F9F9F9"/>
<path fill-rule="evenodd" clip-rule="evenodd" d="M45.0894 11.2023H40.7906V29.8878H45.0894V25.7152L46.1638 24.3693L49.5292 29.8878H54.8172L49.1616 21.8988L54.1105 16.4633H48.9355C48.9355 16.4633 45.4006 21.3264 45.0894 21.903V11.2023Z" fill="#F9F9F9"/>
<path fill-rule="evenodd" clip-rule="evenodd" d="M66.3129 24.5193C66.3693 24.1888 66.4544 23.5547 66.4544 22.8379C66.4544 19.5108 64.7573 16.1334 60.2893 16.1334C55.5099 16.1334 53.3042 19.8951 53.3042 23.3067C53.3042 27.5265 55.9907 30.162 60.6851 30.162C62.5517 30.162 64.2765 29.8878 65.6907 29.3112L65.1248 26.486C63.9655 26.8688 62.7778 27.06 61.3074 27.06C59.2995 27.06 57.5464 26.24 57.4047 24.4919L66.3129 24.5186V24.5193ZM57.3767 21.6253C57.4898 20.5269 58.2251 18.9068 60.0632 18.9068C62.0141 18.9068 62.4668 20.637 62.4668 21.6253H57.3767Z" fill="#F9F9F9"/>
<path fill-rule="evenodd" clip-rule="evenodd" d="M77.0647 11.2023V17.6706H77.0083C76.386 16.7653 75.0849 16.1613 73.3603 16.1613C70.0513 16.1613 67.1387 18.7967 67.1667 23.2988C67.1667 27.4721 69.7968 30.1898 73.0772 30.1898C74.8588 30.1898 76.5555 29.4209 77.4039 27.9382H77.4889L77.6585 29.8878H81.4766C81.4199 28.9818 81.3629 27.4169 81.3629 25.8798V11.2023H77.0647ZM77.0647 23.9306C77.0647 24.2596 77.0364 24.5894 76.9797 24.8637C76.7255 26.0443 75.7071 26.8677 74.4632 26.8677C72.6814 26.8677 71.522 25.4403 71.522 23.1891C71.522 21.0754 72.512 19.3734 74.4912 19.3734C75.8202 19.3734 76.7536 20.279 77.0083 21.4044C77.0647 21.652 77.0647 21.9266 77.0647 22.1733V23.9306Z" fill="#F9F9F9"/>
<path fill-rule="evenodd" clip-rule="evenodd" d="M94.3134 29.8726V17.0022H90.0147V29.8726H94.3134ZM92.164 15.2449C93.6631 15.2449 94.5961 14.2566 94.5961 13.0216C94.5681 11.7587 93.6631 10.7978 92.1925 10.7978C90.722 10.7978 89.7606 11.7587 89.7606 13.0216C89.7606 14.2566 90.6934 15.2449 92.136 15.2449H92.164Z" fill="#232323"/>
<path fill-rule="evenodd" clip-rule="evenodd" d="M96.692 29.8726H100.991V22.6852C100.991 22.3005 101.019 21.9163 101.132 21.6413C101.443 20.8727 102.15 20.0768 103.338 20.0768C104.893 20.0768 105.515 21.257 105.515 22.9872V29.8726H109.814V22.4929C109.814 18.5397 107.693 16.7002 104.865 16.7002C102.546 16.7002 101.528 17.9901 100.962 18.8687H100.991V17.0022H96.6921C96.7485 18.2098 96.692 29.8726 96.692 29.8726Z" fill="#232323"/>
</svg>
